<?xml version="1.0" encoding="utf-8"?>
<!-- Generator: Adobe Illustrator 23.0.1, SVG Export Plug-In . SVG Version: 6.00 Build 0)  -->
<svg version="1.1" id="圖層_1" xmlns="http://www.w3.org/2000/svg" xmlns:xlink="http://www.w3.org/1999/xlink" x="0px" y="0px"
	 viewBox="0 0 362 293.2" style="enable-background:new 0 0 362 293.2;" xml:space="preserve">
<style type="text/css">
	.st0{fill:#EC1B25;}
</style>
<path class="st0" d="M361.6,224.2c-2.7-14.1-5.5-28.2-8.2-42.3c-4.4-22.2-8.8-44.3-13.1-66.5c-5-25.8-10.1-51.5-15-77.3
	c-0.6-3.1-1.7-4-5-3.6c-28.1,4-56.2,7.8-84.3,11.9c-4.1,0.6-6.1-0.7-8.1-4.2c-7.7-14-18.2-25.4-32.6-33C174.1-2,152.4-3.1,130.6,6.8
	C109.7,16.4,96,32.9,87.5,54c-2.3,5.8-2.2,5.9-8.6,5.9c-20.9,0-41.8,0-62.8,0c-6.1,0-6.1,0-6.4,5.8c-1.6,30.7-3.3,61.3-4.9,92
	c0,0-0.1,0-0.1,0c-0.6,10.5-1.1,21.1-1.6,31.6c-1,19.7-1.8,39.5-3,59.2C-0.6,258.6,9,269.1,19.7,269c2.7,0,5.4,0.2,8.1,0
	c2.9-0.2,4.2,0.8,5.1,3.9c4.1,14.5,16.5,22.1,31.2,19.9c19.9-3,39.8-5.8,59.8-8.6c27.3-3.8,54.6-7.8,82-11.3
	c11.2-1.4,22.3-3.9,33.7-3.8c19.8,0.1,39.5,0,59.3,0c6.5,0,12.8-1.4,16.5-6.6c3.6-5.1,8-6.4,13.5-6.9c3.6-0.3,7.2-1.1,10.8-1.5
	C353.7,252.3,364.2,238.1,361.6,224.2z M143.3,270c-19.1,2.7-38.3,5.5-57.4,8.2c-7.2,1-14.4,2.1-21.6,3.1
	c-5.9,0.8-11.9,1.6-16.6-3.6c-0.8-0.8-1.6-1.7-2.2-2.6c-2.7-4.5-2-5.9,3.3-5.9c15.5,0,31.1,0,46.6,0c0,0.1,0,0.1,0,0.2
	c15.9,0,31.8,0,47.8,0c0.8,0,1.5,0.1,2.3,0.2C144.8,269.6,144.1,269.9,143.3,270z M242.7,103.9c-1.9,4.8-5.9,7.3-11.3,7.6
	c-4.9,0.2-8.6-1.8-11.1-5.8c-2.7-4.2-3.4-9-0.3-12.9c3.5-4.4,2.9-8.6,1.8-13.4c-2-9.3-5.7-17.8-10.4-25.9c-1.4-2.4-3-3.1-6-2.7
	c-18.2,2.7-36.5,4.6-54.6,7.6c-13,2.2-26,1.8-39,1.7c-4,0-6.3,1.2-7.8,5.1C101.7,71,100,77,98.5,83c-0.7,2.9-0.3,5.4,1.9,7.9
	c4.3,5,3.1,13.4-2.1,17.9c-4.5,4-12.8,3.4-17.2-1.2c-4.9-5.1-5-12.5-0.1-17.6c2-2.1,3.3-4,3.8-7.2c3.5-21.9,13-40.7,30-55.3
	c13.3-11.4,28.2-19,49.4-18.8c13.9,0.2,28.2,6.9,40.9,17.7c17.5,14.9,27.8,33.8,31.1,56.4c0.4,3,1.8,4.8,3.8,6.7
	C244.3,93.6,244.7,98.9,242.7,103.9z M339.6,242.5c-4.5,1.1-9,1.7-13.6,2.2c-4.6,0.5-4.9,0.2-5.3-4.4c-0.5-6.9-0.8-13.8-1.2-20.7
	c-2.1-39.5-4.2-78.9-6.3-118.4c-0.6-12.1-1.3-24.1-2-36.2c-0.3-5.1-0.2-5.2-5.8-5.2c-20.9,0-41.8,0-62.8-0.1c-2,0-5.6,0.7-5.6-0.8
	c0-2.2,3.3-1.7,5.2-2c23.1-3.3,46.3-6.5,69.4-9.9c3.1-0.5,3.8,0.8,4.3,3.5c2.8,15.2,5.9,30.5,8.9,45.7
	c7.2,36.4,14.4,72.8,21.5,109.3c1.5,7.5,2.8,15.1,4,21.4C350.6,235.2,346.5,240.9,339.6,242.5z"/>
<path class="st0" d="M234.3,93c-1.5-22.5-8.8-42.1-25-58.7c-13.5-13.8-29.3-20-43.9-21.1c-20.5-0.1-35.2,5.4-47.9,15.7
	c-16.8,13.7-25.9,31.9-29.7,52.9c-0.9,4.7-1.3,9.5-1.1,14.3c0.1,2.5,1.4,4.2,3.8,4.3c2.1,0.1,3.5-1.4,3.8-3.5
	c0.3-1.7,0.4-3.4,0.5-5.1c1-21.1,8.8-39.3,24.2-53.6c18.7-17.3,40.5-22.4,64.3-12.3c23.8,10.1,36.3,29.6,41.5,54.2
	c1.1,5.2,1.4,10.6,2,16c0.3,2.6,1.3,4.6,4.2,4.3c2.9-0.3,3.5-2.5,3.4-5.1C234.4,94.5,234.4,93.7,234.3,93z"/>
</svg>
